<?xml version="1.0" encoding="UTF-8" standalone="no"?>
<svg
   xmlns:dc="http://purl.org/dc/elements/1.1/"
   xmlns:cc="http://creativecommons.org/ns#"
   xmlns:rdf="http://www.w3.org/1999/02/22-rdf-syntax-ns#"
   xmlns:svg="http://www.w3.org/2000/svg"
   xmlns="http://www.w3.org/2000/svg"
   xmlns:sodipodi="http://sodipodi.sourceforge.net/DTD/sodipodi-0.dtd"
   xmlns:inkscape="http://www.inkscape.org/namespaces/inkscape"
   version="1.0"
   width="300.000000pt"
   height="199.000000pt"
   viewBox="0 0 300.000000 199.000000"
   preserveAspectRatio="xMidYMid meet"
   id="svg3336"
   inkscape:version="0.91 r13725"
   sodipodi:docname="cerf.svg">
  <defs
     id="defs3346" />
  <sodipodi:namedview
     pagecolor="#ffffff"
     bordercolor="#666666"
     borderopacity="1"
     objecttolerance="10"
     gridtolerance="10"
     guidetolerance="10"
     inkscape:pageopacity="0"
     inkscape:pageshadow="2"
     inkscape:window-width="1920"
     inkscape:window-height="1001"
     id="namedview3344"
     showgrid="false"
     inkscape:zoom="3.2361809"
     inkscape:cx="132.9604"
     inkscape:cy="124.375"
     inkscape:window-x="-9"
     inkscape:window-y="-9"
     inkscape:window-maximized="1"
     inkscape:current-layer="svg3336" />
  <metadata
     id="metadata3338">
Created by potrace 1.10, written by Peter Selinger 2001-2011
<rdf:RDF>
  <cc:Work
     rdf:about="">
    <dc:format>image/svg+xml</dc:format>
    <dc:type
       rdf:resource="http://purl.org/dc/dcmitype/StillImage" />
    <dc:title></dc:title>
  </cc:Work>
</rdf:RDF>
</metadata>
  <g
     transform="translate(0.000000,199.000000) scale(0.100000,-0.100000)"
     fill="#000000"
     stroke="none"
     id="g3340">
    <path
       d="M1317 1848 c4 -49 -2 -69 -84 -256 -76 -173 -94 -206 -121 -223 -35 -21 -77 -24 -115 -10 -56 21 -81 174 -45 266 48 119 48 119 28 162 -41 93 -80 109 -80 33 0 -45 -7 -62 -65 -154 -60 -95 -65 -108 -65 -158 0 -31 7 -74 15 -98 30 -86 147 -262 244 -367 53 -58 101 -119 108 -136 6 -18 12 -69 12 -113 1 -58 17 -158 56 -345 31 -144 56 -263 58 -264 1 -1 40 -28 87 -59 80 -55 86 -57 120 -47 51 15 113 85 138 156 33 91 125 413 162 564 37 151 84 241 163 315 110 102 222 261 232 327 16 106 15 111 -31 181 -66 101 -96 179 -88 229 l7 41 -29 -15 c-64 -33 -80 -183 -28 -274 50 -87 21 -166 -90 -252 l-56 -44 -44 39 c-37 33 -49 54 -81 144 -21 58 -53 138 -71 179 -38 82 -46 159 -19 181 24 20 17 30 -12 19 -52 -19 -60 -43 -68 -200 l-7 -145 66 -204 c76 -232 76 -231 4 -321 -45 -58 -91 -82 -163 -85 -55 -3 -88 11 -152 63 -82 67 -82 113 1 370 61 187 65 205 72 325 7 131 1 170 -34 211 -24 27 -29 20 -25 -35z m760 -167 c20 -36 44 -77 54 -90 38 -48 21 -167 -34 -249 -43 -65 -166 -211 -187 -222 -18 -10 -101 -128 -119 -170 -10 -22 -52 -182 -67 -250 -12 -57 -106 -376 -135 -460 -24 -69 -93 -140 -136 -140 -19 0 -55 18 -101 51 -80 56 -72 39 -116 249 -14 69 -34 165 -45 214 -10 48 -19 125 -20 170 -3 117 -14 151 -76 215 -105 111 -118 127 -170 206 -98 148 -127 210 -132 278 -5 68 -6 65 81 208 27 44 48 91 48 105 1 36 17 29 35 -13 15 -36 15 -41 -11 -113 -35 -102 -37 -216 -3 -275 30 -54 86 -75 146 -55 22 7 49 22 60 34 11 12 45 80 75 151 31 72 70 157 86 190 17 34 30 70 30 80 0 16 2 17 9 6 5 -8 7 -68 4 -135 -4 -122 -25 -208 -93 -391 -46 -123 -51 -186 -19 -252 11 -24 24 -43 27 -43 4 0 21 -14 39 -30 44 -41 77 -53 151 -52 88 1 138 31 198 117 53 76 51 93 -38 360 l-51 150 7 112 c3 61 10 122 15 135 10 22 10 22 10 -5 1 -16 15 -59 32 -95 17 -37 37 -85 44 -107 41 -128 67 -181 107 -222 23 -24 51 -43 63 -43 33 0 128 73 163 125 41 63 43 116 6 188 -28 57 -35 142 -15 192 l13 30 15 -44 c8 -24 31 -73 50 -110z"
       id="path3342" />
  </g>
  <path
     style="fill:#c87137"
     d="m 251.2708,19.629137 c -1.80618,0.790901 -1.91644,3.266512 -2.64225,4.88435 -2.6679,8.968961 0.18473,18.413098 3.95742,26.615317 3.01371,6.941262 1.29347,15.011735 -3.52771,20.675306 -4.21196,4.957143 -9.2743,9.309949 -14.9705,12.409739 -2.03804,1.217954 -4.70917,1.424225 -6.50965,-0.31323 -6.40562,-4.482914 -10.47796,-11.538607 -13.08031,-18.700812 -3.3544,-8.898134 -6.23254,-18.038953 -10.26411,-26.703652 -1.71525,-3.867306 -3.15925,-7.776912 -3.68518,-11.966282 -0.73942,-1.599049 -2.7712,-0.372396 -2.84201,1.018755 -1.56454,8.071319 -1.65822,16.352229 -2.3183,24.530899 -0.0789,2.967374 -0.91086,6.049974 0.57338,8.8168 4.78851,14.553451 10.14323,28.946184 13.92035,43.809323 0.53584,3.57104 0.84885,7.36196 -0.15437,10.86931 -2.41872,4.90968 -5.76199,9.40399 -9.63049,13.27278 -4.98584,5.05509 -12.23734,7.17763 -19.21263,6.8309 -5.38098,0.008 -10.8763,-1.08038 -15.06593,-4.68535 -2.39581,-2.11008 -5.06096,-4.01477 -7.42158,-6.19944 -4.54384,-5.95172 -5.83353,-13.87718 -4.28959,-21.11899 1.85871,-9.175851 5.82565,-17.886186 8.66275,-26.828878 4.02045,-11.496347 6.77238,-23.490847 7.15729,-35.69853 0.12682,-5.74245 0.54845,-11.582032 -0.3845,-17.270083 -0.11354,-1.476331 -2.30915,-2.114863 -2.72312,-0.491875 -1.00172,5.672309 -3.9871,10.626686 -6.23231,15.916279 -5.72035,11.862369 -10.28283,24.292351 -16.7293,35.795095 -2.06628,3.244982 -5.97687,4.800269 -9.5456,5.756538 -3.96341,0.783031 -8.77643,0.488963 -11.94502,-2.390574 -5.52926,-4.592017 -6.78621,-12.28972 -6.56206,-19.100437 -0.20126,-8.305002 2.19208,-16.32964 4.89813,-24.123013 1.19998,-3.203466 1.18115,-6.808529 -0.46713,-9.858626 -0.98578,-1.717242 -1.77615,-4.375291 -3.99415,-4.746142 -2.06765,0.485235 -1.58722,3.329444 -2.17753,4.890386 -2.49955,7.317831 -7.12821,13.737485 -10.91525,20.461432 -2.72536,4.638013 -5.755679,9.69324 -4.998108,15.30974 0.404823,11.523076 6.843278,21.562555 12.773228,31.027357 5.54396,8.805541 11.422,17.463561 18.69777,24.951151 4.39948,5.10621 9.78404,9.51712 12.98802,15.54367 2.90577,6.03714 2.42183,12.82182 3.01842,19.30375 0.59842,14.24756 4.28717,28.07515 7.05008,41.99493 1.96344,8.67506 3.34263,17.51364 5.95939,26.02395 1.85817,5.81174 7.70506,8.71371 12.34637,11.99994 3.56136,2.18922 7.35807,5.12408 11.75551,4.82037 5.49114,-1.55204 9.48868,-6.15584 12.75026,-10.59783 4.07741,-5.77198 5.39809,-12.87968 7.72433,-19.43017 6.03494,-19.33673 11.62305,-38.81987 16.26939,-58.54002 1.91828,-6.891 3.32501,-14.02865 6.42575,-20.51479 4.24635,-7.2251 8.89604,-14.32734 15.03811,-20.10351 8.19394,-8.46999 15.85234,-17.528062 22.40635,-27.332486 4.96886,-8.066632 7.72056,-18.060842 5.50077,-27.450332 -1.16963,-3.473809 -3.93819,-6.103126 -5.46696,-9.416884 -4.13334,-7.332867 -7.83298,-14.963493 -10.74319,-22.894182 -0.23849,-0.563337 -0.67526,-1.16064 -1.37423,-1.051949 z"
     id="path4170"
     inkscape:connector-curvature="0"
     transform="scale(0.8,0.8)" />
  <path
     style="fill:#200e00;fill-opacity:1"
     d="m 251.28711,19.285156 c -2.21099,0.481795 -2.38197,3.384984 -3.11914,5.119141 -2.75641,8.996506 0.1832,18.456421 3.81445,26.748047 3.13664,7.317579 0.98776,16.192701 -4.58789,21.710937 -4.22589,4.446702 -8.95267,8.651297 -14.55469,11.296875 -2.37522,1.053217 -4.90511,-0.188084 -6.55664,-1.945312 -5.36178,-4.521781 -8.86691,-10.714173 -11.21679,-17.197266 -3.72338,-9.920252 -7.32747,-19.910815 -11.49219,-29.632812 -1.47196,-3.067828 -1.68136,-6.569622 -3.14649,-9.63086 -1.232,-1.460771 -3.10357,0.416509 -3.17187,1.837891 -1.72127,8.12499 -1.73413,16.501191 -2.48047,24.75 -0.84729,7.417255 2.74184,14.261657 4.81055,21.166015 3.46303,10.597071 7.34212,21.100349 9.84765,31.982418 0.34983,2.84527 0.39988,6.07382 0.1543,9.02539 -3.18039,6.45275 -7.57684,12.53464 -13.37305,16.82032 -6.52717,4.25744 -14.77472,4.22498 -22.14648,3.0664 -5.99028,-1.26958 -10.4032,-5.9152 -14.89258,-9.73437 -2.41048,-2.6172 -3.83087,-6.04057 -4.54687,-9.49024 -0.60471,-5.27425 -0.66556,-10.83084 1.11914,-15.962886 5.21171,-17.122945 12.87503,-33.850048 14.30078,-51.935547 0.50338,-7.792635 0.94206,-15.675418 0,-23.447266 0.0194,-2.12035 -3.33781,-2.423077 -3.72266,-0.375 -2.64769,9.218966 -7.42881,17.632657 -11.11133,26.451172 -3.92418,8.721368 -7.63388,17.585273 -12.52343,25.826172 -3.47798,3.731256 -8.97972,5.203533 -13.95703,4.826172 -6.46462,-0.708005 -10.66308,-6.92867 -11.7168,-12.869141 -1.01782,-6.199354 -0.73686,-12.586869 0.32812,-18.71875 0.98207,-5.651446 3.32356,-10.992081 4.54492,-16.61914 0.51481,-4.215851 -1.28286,-8.474205 -4.08593,-11.552735 -1.15694,-1.287025 -3.15476,-0.397135 -3.46875,1.167969 -0.764,3.532025 -1.99087,6.953535 -3.7793,10.111328 -3.81178,7.586638 -9.07164,14.43992 -12.166015,22.388672 -1.611551,5.512591 -0.536679,11.454391 1.080078,16.841797 3.924647,11.32153 10.997807,21.173823 17.544917,31.089843 6.13551,9.32538 14.24721,17.05651 21.53516,25.43555 3.47053,3.85212 5.50591,8.94624 5.71484,14.10937 0.96063,10.2378 1.28011,20.59132 3.47461,30.68946 2.94775,14.62008 5.84721,29.26013 9.29493,43.77148 0.93217,4.18444 2.7664,8.35106 6.35156,10.92383 4.67399,3.49355 9.46066,7.00637 14.8125,9.38867 0.0524,0.0245 0.10738,0.0392 0.16016,0.0625 0.0737,-0.0135 0.14637,-0.0347 0.2207,-0.0449 1.8133,0.18109 1.83141,3.02502 6.62304,-0.13086 0.3666,-0.18144 0.72558,-0.38375 1.06641,-0.62109 7.8425,-4.70777 12.72916,-13.10366 15.12891,-21.73829 6.98608,-21.56661 13.14193,-43.39717 18.58398,-65.40039 2.36641,-8.54686 3.88828,-17.62305 9.01953,-25.05859 4.43082,-7.64579 10.59521,-13.97558 16.64063,-20.32422 7.35068,-8.245005 14.77191,-16.638398 20.11523,-26.367187 3.75797,-7.608851 5.78606,-16.665389 3.24414,-24.964844 -1.93828,-4.17853 -4.92614,-7.801815 -6.89843,-11.96289 -3.47157,-6.332326 -6.24592,-13.044511 -9.16016,-19.652344 -0.32955,-0.628561 -0.86655,-1.301969 -1.65625,-1.230469 z"
     transform="scale(0.8,0.8)"
     id="path4176"
     inkscape:connector-curvature="0"
     sodipodi:nodetypes="ccccccccccccccccccccccccccccccccccccccccccccccccccccc" />
</svg>
